<?xml version="1.0" standalone="no"?>
<!DOCTYPE svg PUBLIC "-//W3C//DTD SVG 20010904//EN"
 "http://www.w3.org/TR/2001/REC-SVG-20010904/DTD/svg10.dtd">
<svg version="1.0" xmlns="http://www.w3.org/2000/svg"
 width="300.000000pt" height="300.000000pt" viewBox="0 0 300.000000 300.000000"
 preserveAspectRatio="xMidYMid meet">
<metadata>
Created by potrace 1.14, written by Peter Selinger 2001-2017
</metadata>
<g transform="translate(0.000000,300.000000) scale(0.100000,-0.100000)"
fill="#000000" stroke="none">
<path d="M1379 2696 c-2 -2 -26 -6 -54 -10 -27 -3 -65 -10 -82 -15 -18 -5 -33
-8 -33 -6 0 10 -196 -67 -265 -104 -133 -71 -270 -182 -363 -295 -75 -90 -174
-276 -206 -386 -13 -44 -25 -61 -57 -85 -93 -69 -199 -208 -251 -330 -45 -106
-62 -191 -62 -315 -1 -139 5 -185 38 -282 99 -296 345 -509 656 -567 34 -6
334 -10 795 -10 625 0 752 2 820 15 249 48 469 210 586 434 33 63 56 118 64
151 2 9 9 34 15 55 21 71 21 269 0 368 -36 172 -148 355 -288 471 -59 49 -66
59 -92 132 -141 403 -489 696 -915 770 -35 6 -301 13 -306 9z m321 -545 c186
-62 339 -210 406 -395 27 -76 36 -128 38 -220 l2 -70 68 -17 c110 -28 181 -86
227 -184 24 -52 27 -71 25 -140 -2 -59 -8 -92 -25 -127 -31 -63 -95 -126 -161
-157 l-55 -26 -730 0 -730 0 -55 26 c-204 97 -255 355 -102 518 98 105 250
131 383 67 44 -21 113 -86 134 -126 l15 -29 185 185 c102 102 185 191 185 198
0 21 -152 160 -218 200 -62 37 -191 92 -242 102 -16 4 -30 10 -30 13 0 12 72
72 130 109 115 74 216 101 370 97 86 -2 132 -8 180 -24z"/>
</g>
</svg>
